<svg width="23" height="23" viewBox="0 0 23 23" fill="none" xmlns="http://www.w3.org/2000/svg">
<path d="M8.03157 21.5893V18.0729C8.03157 17.1753 8.80315 16.4476 9.75495 16.4476H13.2342C13.6913 16.4476 14.1296 16.6189 14.4528 16.9237C14.776 17.2285 14.9576 17.6419 14.9576 18.0729V21.5893C14.9547 21.9625 15.1099 22.3213 15.3887 22.5862C15.6674 22.851 16.0468 23 16.4425 23H18.8162C19.9248 23.0027 20.989 22.5893 21.7739 21.8509C22.5589 21.1126 23 20.11 23 19.0645V9.04688C23 8.20232 22.603 7.40121 21.9161 6.85937L13.8412 0.777249C12.4365 -0.289154 10.424 -0.254722 9.06126 0.859025L1.17059 6.85937C0.451212 7.38524 0.0212475 8.18873 0 9.04688V19.0543C0 21.2334 1.87315 23 4.18379 23H6.5033C7.32517 23 7.9931 22.3746 7.99906 21.5996L8.03157 21.5893Z" fill="#0C46D3"/>
</svg>
